<svg width="80" height="61" viewBox="0 0 80 61" fill="none" xmlns="http://www.w3.org/2000/svg">
<path d="M24.2826 59.5354C23.0679 60.6623 21.1698 60.5911 20.0429 59.3765L16.6423 55.711C15.5154 54.4964 15.5866 52.5982 16.8012 51.4714L71.0502 1.14204C72.2649 0.0151669 74.163 0.0863117 75.2899 1.30094L78.6905 4.96642C79.8174 6.18105 79.7463 8.07921 78.5316 9.20608L24.2826 59.5354Z" fill="#52B2E8"/>
<path d="M8.68077 59.4337C7.46614 60.5606 5.56797 60.4894 4.4411 59.2748L1.04047 55.6093C-0.0863963 54.3947 -0.0152504 52.4965 1.19938 51.3697L55.4484 1.04035C56.6631 -0.0865177 58.5612 -0.0153729 59.6881 1.19926L63.0887 4.86474C64.2156 6.07937 64.1444 7.97753 62.9298 9.1044L8.68077 59.4337Z" fill="#0991DD"/>
</svg>
