<svg width="297" height="53" viewBox="0 0 297 53" fill="none" xmlns="http://www.w3.org/2000/svg">
<path d="M13.3 7.74498V38.875H26.61L28.48 29.36H33.155V43H0.97998V39.81L6.14998 38.655V7.74498L0.97998 6.58997V3.39998H19.02V6.58997L13.3 7.74498Z" fill="#0E0E0E"/>
<path d="M46.0095 13.3V28.04C46.0095 30.3866 46.0645 32.1466 46.1745 33.32C46.2845 34.4933 46.4495 35.4283 46.6695 36.125C46.9628 37.005 47.4395 37.6833 48.0995 38.16C48.7962 38.6 49.4928 38.82 50.1895 38.82C51.1795 38.82 52.0778 38.6366 52.8845 38.27C53.6912 37.9033 54.4428 37.4083 55.1395 36.785C56.6428 35.4283 57.4678 33.32 57.6145 30.46V17.425L52.8295 16.38V13.3H64.5995V38.875L68.8345 39.92V43L58.6595 43.55L58.0545 37.5H57.8345C56.7712 39.37 55.3228 40.855 53.4895 41.955C51.6562 43.0183 49.6945 43.55 47.6045 43.55C46.2112 43.55 44.9278 43.2933 43.7545 42.78C42.6178 42.23 41.7195 41.4966 41.0595 40.58C40.3628 39.5533 39.8495 38.105 39.5195 36.235C39.1895 34.365 39.0245 31.8716 39.0245 28.755V17.425L35.3395 16.38V13.3H46.0095Z" fill="#0E0E0E"/>
<path d="M75.2334 4.93998C75.2334 3.76664 75.5818 2.81331 76.2784 2.07998C77.0117 1.34664 78.0201 0.979974 79.3034 0.979974C80.5868 0.979974 81.5951 1.34664 82.3284 2.07998C83.0617 2.81331 83.4284 3.76664 83.4284 4.93998C83.4284 6.07664 83.0617 7.01164 82.3284 7.74498C81.6318 8.47831 80.6234 8.84497 79.3034 8.84497C77.9834 8.84497 76.9751 8.49664 76.2784 7.79997C75.5818 7.06664 75.2334 6.11331 75.2334 4.93998ZM75.8384 17.425L71.6034 16.38V13.3H82.8234V38.875L87.0584 39.92V43H71.6034V39.92L75.8384 38.875V17.425Z" fill="#0E0E0E"/>
<path d="M110.381 39.095L111.481 31.615H116.266V43H90.2514V39.095L107.466 17.205H97.0714L95.7514 24.41H90.9664V13.3H116.046V17.205L98.8864 39.095H110.381Z" fill="#0E0E0E"/>
<path d="M159.053 30.515H154.598L153.663 25.345H146.128V38.49L152.563 39.535V43H133.808V39.81L138.978 38.49V7.74498L133.808 6.58997V3.39998H166.423V15.17H161.803L160.043 7.41498H146.128V21.22H153.663L154.598 15.995H159.053V30.515Z" fill="#0E0E0E"/>
<path d="M194.477 28.92H175.282C175.282 31.4133 175.649 33.485 176.382 35.135C177.556 37.7383 179.572 39.04 182.432 39.04C184.046 39.04 185.641 38.6733 187.217 37.94C188.831 37.2066 190.206 36.1066 191.342 34.64L194.312 36.95C193.029 38.7833 191.287 40.3416 189.087 41.625C186.924 42.9083 184.247 43.55 181.057 43.55C175.521 43.55 171.726 41.4233 169.672 37.17C169.122 36.0333 168.719 34.7683 168.462 33.375C168.206 31.9816 168.077 30.4783 168.077 28.865C168.077 23.7316 169.251 19.7716 171.597 16.985C173.981 14.1616 177.336 12.75 181.662 12.75C185.659 12.75 188.812 13.9233 191.122 16.27C193.469 18.58 194.642 21.7883 194.642 25.895C194.642 26.2983 194.624 26.7016 194.587 27.105C194.587 27.4716 194.551 28.0766 194.477 28.92ZM181.552 16.545C177.776 16.545 175.704 19.4966 175.337 25.4H187.437V23.97C187.437 21.5866 186.906 19.7533 185.842 18.47C184.816 17.1866 183.386 16.545 181.552 16.545Z" fill="#0E0E0E"/>
<path d="M201.994 38.82V4.27997L197.759 3.23497V0.0999756H208.979V38.82L213.214 39.865V43H197.759V39.865L201.994 38.82Z" fill="#0E0E0E"/>
<path d="M219.823 4.93998C219.823 3.76664 220.172 2.81331 220.868 2.07998C221.602 1.34664 222.61 0.979974 223.893 0.979974C225.177 0.979974 226.185 1.34664 226.918 2.07998C227.652 2.81331 228.018 3.76664 228.018 4.93998C228.018 6.07664 227.652 7.01164 226.918 7.74498C226.222 8.47831 225.213 8.84497 223.893 8.84497C222.573 8.84497 221.565 8.49664 220.868 7.79997C220.172 7.06664 219.823 6.11331 219.823 4.93998ZM220.428 17.425L216.193 16.38V13.3H227.413V38.875L231.648 39.92V43H216.193V39.92L220.428 38.875V17.425Z" fill="#0E0E0E"/>
<path d="M244.961 48.775L250.296 49.82V52.9H233.741V49.82L237.976 48.775V17.425L233.741 16.38V13.3H243.311L244.136 17.535C245.31 15.7016 246.63 14.455 248.096 13.795C249.6 13.0983 251.286 12.75 253.156 12.75C255.026 12.75 256.713 13.025 258.216 13.575C259.756 14.125 261.003 15.005 261.956 16.215C263.056 17.6083 263.918 19.295 264.541 21.275C265.201 23.2183 265.531 25.3266 265.531 27.6C265.531 29.9466 265.165 32.165 264.431 34.255C263.735 36.3083 262.781 38.0316 261.571 39.425C259.518 41.8083 256.566 43 252.716 43C251.14 43 249.71 42.7066 248.426 42.12C247.18 41.4966 246.025 40.4333 244.961 38.93V48.775ZM244.906 27.6C244.906 29.6166 245.071 31.3583 245.401 32.825C245.731 34.2916 246.171 35.4833 246.721 36.4C247.271 37.3166 247.968 38.0316 248.811 38.545C249.691 39.0583 250.7 39.315 251.836 39.315C252.973 39.315 253.89 39.0766 254.586 38.6C255.32 38.1233 255.906 37.5 256.346 36.73C257.52 34.6766 258.106 31.8166 258.106 28.15C258.106 26.3166 257.941 24.5933 257.611 22.98C257.281 21.33 256.841 20.01 256.291 19.02C255.741 18.0666 255.063 17.4066 254.256 17.04C253.45 16.6733 252.533 16.49 251.506 16.49C249.343 16.49 247.73 17.3333 246.666 19.02C246.153 19.8633 245.731 21 245.401 22.43C245.071 23.86 244.906 25.5833 244.906 27.6Z" fill="#0E0E0E"/>
<path d="M296.098 28.92H276.903C276.903 31.4133 277.27 33.485 278.003 35.135C279.177 37.7383 281.193 39.04 284.053 39.04C285.667 39.04 287.262 38.6733 288.838 37.94C290.452 37.2066 291.827 36.1066 292.963 34.64L295.933 36.95C294.65 38.7833 292.908 40.3416 290.708 41.625C288.545 42.9083 285.868 43.55 282.678 43.55C277.142 43.55 273.347 41.4233 271.293 37.17C270.743 36.0333 270.34 34.7683 270.083 33.375C269.827 31.9816 269.698 30.4783 269.698 28.865C269.698 23.7316 270.872 19.7716 273.218 16.985C275.602 14.1616 278.957 12.75 283.283 12.75C287.28 12.75 290.433 13.9233 292.743 16.27C295.09 18.58 296.263 21.7883 296.263 25.895C296.263 26.2983 296.245 26.7016 296.208 27.105C296.208 27.4716 296.172 28.0766 296.098 28.92ZM283.173 16.545C279.397 16.545 277.325 19.4966 276.958 25.4H289.058V23.97C289.058 21.5866 288.527 19.7533 287.463 18.47C286.437 17.1866 285.007 16.545 283.173 16.545Z" fill="#0E0E0E"/>
</svg>
